<?xml version="1.0" encoding="UTF-8" standalone="no"?>
<svg
   xmlns:dc="http://purl.org/dc/elements/1.1/"
   xmlns:cc="http://creativecommons.org/ns#"
   xmlns:rdf="http://www.w3.org/1999/02/22-rdf-syntax-ns#"
   xmlns:svg="http://www.w3.org/2000/svg"
   xmlns="http://www.w3.org/2000/svg"
   xmlns:sodipodi="http://sodipodi.sourceforge.net/DTD/sodipodi-0.dtd"
   xmlns:inkscape="http://www.inkscape.org/namespaces/inkscape"
   viewBox="0 0 573.33331 124"
   height="124"
   width="573.33331"
   xml:space="preserve"
   id="svg2"
   version="1.1"
   sodipodi:docname="architecture.svg"
   inkscape:version="0.92.4 (5da689c313, 2019-01-14)"><sodipodi:namedview
     pagecolor="#ffffff"
     bordercolor="#666666"
     borderopacity="1"
     objecttolerance="10"
     gridtolerance="10"
     guidetolerance="10"
     inkscape:pageopacity="0"
     inkscape:pageshadow="2"
     inkscape:window-width="1920"
     inkscape:window-height="1030"
     id="namedview84"
     showgrid="false"
     inkscape:zoom="2.5203489"
     inkscape:cx="286.66666"
     inkscape:cy="62"
     inkscape:window-x="0"
     inkscape:window-y="0"
     inkscape:window-maximized="1"
     inkscape:current-layer="layer1" /><metadata
     id="metadata8"><rdf:RDF><cc:Work
         rdf:about=""><dc:format>image/svg+xml</dc:format><dc:type
           rdf:resource="http://purl.org/dc/dcmitype/StillImage" /></cc:Work></rdf:RDF></metadata><defs
     id="defs6" /><path
     id="path22"
     style="fill:none;stroke:#ffffff;stroke-width:0.75;stroke-linecap:butt;stroke-linejoin:miter;stroke-miterlimit:1;stroke-dasharray:none;stroke-opacity:1"
     d="m 78.083331,46.541202 v 0 c 6.627067,0 12,5.3728 12,12 v 5.999999 c 0,6.627067 -5.372933,12 -12,12 H 49.583332 v 0 c -6.627066,0 -12,-5.372933 -12,-12 v -5.999999 c 0,-6.6272 5.372934,-12 12,-12 z"
     inkscape:connector-curvature="0" /><path
     id="path32"
     style="fill:none;stroke:#ffffff;stroke-width:0.75;stroke-linecap:butt;stroke-linejoin:miter;stroke-miterlimit:1;stroke-dasharray:none;stroke-opacity:1"
     d="m 153.08266,46.541202 v 0 c 6.628,0 12,5.3728 12,12 v 5.999999 c 0,6.627067 -5.372,12 -12,12 h -35.99933 v 0 c -6.62707,0 -12,-5.372933 -12,-12 v -5.999999 c 0,-6.6272 5.37293,-12 12,-12 z"
     inkscape:connector-curvature="0" /><path
     id="path42"
     style="fill:none;stroke:#ffffff;stroke-width:0.75;stroke-linecap:butt;stroke-linejoin:miter;stroke-miterlimit:1;stroke-dasharray:none;stroke-opacity:1"
     d="m 453.08266,46.541202 v 0 c 6.628,0 12,5.3728 12,12 v 5.999999 c 0,6.627067 -5.372,12 -12,12 h -32.24934 v 0 c -6.62666,0 -12,-5.372933 -12,-12 v -5.999999 c 0,-6.6272 5.37334,-12 12,-12 z"
     inkscape:connector-curvature="0" /><path
     id="path52"
     style="fill:none;stroke:#ffffff;stroke-width:0.75;stroke-linecap:butt;stroke-linejoin:miter;stroke-miterlimit:1;stroke-dasharray:none;stroke-opacity:1"
     d="m 528.08265,46.541202 v 0 c 6.628,0 12,5.3728 12,12 v 5.999999 c 0,6.627067 -5.372,12 -12,12 h -36 v 0 c -6.62666,0 -12,-5.372933 -12,-12 v -5.999999 c 0,-6.6272 5.37334,-12 12,-12 z"
     inkscape:connector-curvature="0" /><path
     id="path70"
     style="fill:none;stroke:#ffffff;stroke-width:0.75;stroke-linecap:butt;stroke-linejoin:miter;stroke-miterlimit:1;stroke-dasharray:none;stroke-opacity:1"
     d="m 22.583333,16.541203 h 5.25"
     inkscape:connector-curvature="0" /><path
     id="path72"
     style="fill:#ffffff;fill-opacity:1;fill-rule:nonzero;stroke:#ffffff;stroke-width:0.13333333;stroke-opacity:1"
     d="m 33.833332,16.541203 -5.999999,2.25 v -4.5"
     inkscape:connector-curvature="0" /><path
     id="path74"
     style="fill:#ffffff;fill-opacity:1;fill-rule:nonzero;stroke:#ffffff;stroke-width:0.13333333;stroke-opacity:1"
     d="m 33.833332,16.541203 -5.999999,2.25 v -4.5"
     inkscape:connector-curvature="0" /><path
     id="path76"
     style="fill:none;stroke:#ffffff;stroke-width:0.75;stroke-linecap:butt;stroke-linejoin:miter;stroke-miterlimit:1;stroke-dasharray:none;stroke-opacity:1"
     d="m 90.083331,61.541202 h 9"
     inkscape:connector-curvature="0" /><path
     id="path78"
     style="fill:#ffffff;fill-opacity:1;fill-rule:nonzero;stroke:#ffffff;stroke-width:0.13333333;stroke-opacity:1"
     d="m 105.08333,61.541202 -5.999999,2.25 v -4.5"
     inkscape:connector-curvature="0" /><path
     id="path80"
     style="fill:#ffffff;fill-opacity:1;fill-rule:nonzero;stroke:#ffffff;stroke-width:0.13333333;stroke-opacity:1"
     d="m 105.08333,61.541202 -5.999999,2.25 v -4.5"
     inkscape:connector-curvature="0" /><path
     id="path82"
     style="fill:none;stroke:#ffffff;stroke-width:0.75;stroke-linecap:butt;stroke-linejoin:miter;stroke-miterlimit:1;stroke-dasharray:none;stroke-opacity:1"
     d="m 81.833331,1.5412031 v 0 c 6.627067,0 12,5.3727998 12,11.9999999 v 6 c 0,6.627066 -5.372933,11.999999 -12,11.999999 H 45.833332 v 0 c -6.627066,0 -12,-5.372933 -12,-11.999999 v -6 c 0,-6.6272001 5.372934,-11.9999999 12,-11.9999999 z"
     inkscape:connector-curvature="0" /><g
     transform="matrix(1.3333333,0,0,-1.3333333,0,124)"
     id="g84"
     style="stroke:#ffffff;stroke-opacity:1">
</g><path
     id="path90"
     style="fill:none;stroke:#ffffff;stroke-width:0.75;stroke-linecap:butt;stroke-linejoin:miter;stroke-miterlimit:1;stroke-dasharray:none;stroke-opacity:1"
     d="m 528.08265,91.541201 v 0 c 6.628,0 12,5.3728 12,11.999999 v 6 c 0,6.62703 -5.372,11.99995 -12,11.99995 h -36 v 0 c -6.62666,0 -12,-5.37292 -12,-11.99995 v -6 c 0,-6.627199 5.37334,-11.999999 12,-11.999999 z"
     inkscape:connector-curvature="0" /><path
     id="path98"
     style="fill:none;stroke:#ffffff;stroke-width:0.75;stroke-linecap:butt;stroke-linejoin:miter;stroke-miterlimit:1;stroke-dasharray:none;stroke-opacity:1"
     d="m 465.08266,61.541202 h 8.99999"
     inkscape:connector-curvature="0" /><path
     id="path100"
     style="fill:#ffffff;fill-opacity:1;fill-rule:nonzero;stroke:#ffffff;stroke-width:0.13333333;stroke-opacity:1"
     d="m 480.08265,61.541202 -6,2.25 v -4.5"
     inkscape:connector-curvature="0" /><path
     id="path102"
     style="fill:#ffffff;fill-opacity:1;fill-rule:nonzero;stroke:#ffffff;stroke-width:0.13333333;stroke-opacity:1"
     d="m 480.08265,61.541202 -6,2.25 v -4.5"
     inkscape:connector-curvature="0" /><path
     id="path104"
     style="fill:none;stroke:#ffffff;stroke-width:0.75;stroke-linecap:butt;stroke-linejoin:miter;stroke-miterlimit:1;stroke-dasharray:none;stroke-opacity:1"
     d="m 380.33332,46.541202 v 0 c 6.62667,0 12,5.3728 12,12 v 5.999999 c 0,6.627067 -5.37333,12 -12,12 h -53.25066 v 0 c -6.62667,0 -12,-5.372933 -12,-12 v -5.999999 c 0,-6.6272 5.37333,-12 12,-12 z"
     inkscape:connector-curvature="0" /><path
     id="path114"
     style="fill:none;stroke:#ffffff;stroke-width:0.75;stroke-linecap:butt;stroke-linejoin:miter;stroke-miterlimit:1;stroke-dasharray:none;stroke-opacity:1"
     d="m 165.08266,61.541202 h 9"
     inkscape:connector-curvature="0" /><path
     id="path116"
     style="fill:#ffffff;fill-opacity:1;fill-rule:nonzero;stroke:#ffffff;stroke-width:0.13333333;stroke-opacity:1"
     d="m 180.08266,61.541202 -6,2.25 v -4.5"
     inkscape:connector-curvature="0" /><path
     id="path118"
     style="fill:#ffffff;fill-opacity:1;fill-rule:nonzero;stroke:#ffffff;stroke-width:0.13333333;stroke-opacity:1"
     d="m 180.08266,61.541202 -6,2.25 v -4.5"
     inkscape:connector-curvature="0" /><path
     id="path120"
     style="fill:none;stroke:#ffffff;stroke-width:0.75;stroke-linecap:butt;stroke-linejoin:miter;stroke-miterlimit:1;stroke-dasharray:none;stroke-opacity:1"
     d="m 393.83332,61.541202 h 9"
     inkscape:connector-curvature="0" /><path
     id="path122"
     style="fill:#ffffff;fill-opacity:1;fill-rule:nonzero;stroke:#ffffff;stroke-width:0.13333333;stroke-opacity:1"
     d="m 408.83332,61.541202 -6,2.25 v -4.5"
     inkscape:connector-curvature="0" /><path
     id="path124"
     style="fill:#ffffff;fill-opacity:1;fill-rule:nonzero;stroke:#ffffff;stroke-width:0.13333333;stroke-opacity:1"
     d="m 408.83332,61.541202 -6,2.25 v -4.5"
     inkscape:connector-curvature="0" /><path
     id="path126"
     style="fill:none;stroke:#ffffff;stroke-width:0.75;stroke-linecap:butt;stroke-linejoin:miter;stroke-miterlimit:1;stroke-dasharray:none;stroke-opacity:1"
     d="m 63.833332,31.541202 v 9"
     inkscape:connector-curvature="0" /><path
     id="path128"
     style="fill:#ffffff;fill-opacity:1;fill-rule:nonzero;stroke:#ffffff;stroke-width:0.13333333;stroke-opacity:1"
     d="m 63.833332,46.541202 -2.25,-6 h 4.5"
     inkscape:connector-curvature="0" /><path
     id="path130"
     style="fill:#ffffff;fill-opacity:1;fill-rule:nonzero;stroke:#ffffff;stroke-width:0.13333333;stroke-opacity:1"
     d="m 63.833332,46.541202 -2.25,-6 h 4.5"
     inkscape:connector-curvature="0" /><path
     id="path132"
     style="fill:none;stroke:#ffffff;stroke-width:0.75;stroke-linecap:butt;stroke-linejoin:miter;stroke-miterlimit:1;stroke-dasharray:none;stroke-opacity:1"
     d="m 510.08265,76.541201 v 9"
     inkscape:connector-curvature="0" /><path
     id="path134"
     style="fill:#ffffff;fill-opacity:1;fill-rule:nonzero;stroke:#ffffff;stroke-width:0.13333333;stroke-opacity:1"
     d="m 510.08265,91.541201 -2.24933,-6 h 4.5"
     inkscape:connector-curvature="0" /><path
     id="path136"
     style="fill:#ffffff;fill-opacity:1;fill-rule:nonzero;stroke:#ffffff;stroke-width:0.13333333;stroke-opacity:1"
     d="m 510.08265,91.541201 -2.24933,-6 h 4.5"
     inkscape:connector-curvature="0" /><path
     id="path138"
     style="fill:none;stroke:#ffffff;stroke-width:0.75;stroke-linecap:butt;stroke-linejoin:miter;stroke-miterlimit:1;stroke-dasharray:none;stroke-opacity:1"
     d="m 540.08265,106.5412 h 5.25067"
     inkscape:connector-curvature="0" /><path
     id="path140"
     style="fill:#ffffff;fill-opacity:1;fill-rule:nonzero;stroke:#ffffff;stroke-width:0.13333333;stroke-opacity:1"
     d="m 551.33332,106.5412 -6,2.25 v -4.5"
     inkscape:connector-curvature="0" /><path
     id="path142"
     style="fill:#ffffff;fill-opacity:1;fill-rule:nonzero;stroke:#ffffff;stroke-width:0.13333333;stroke-opacity:1"
     d="m 551.33332,106.5412 -6,2.25 v -4.5"
     inkscape:connector-curvature="0" /><path
     id="path144"
     style="fill:none;stroke:#ffffff;stroke-width:0.75;stroke-linecap:butt;stroke-linejoin:miter;stroke-miterlimit:1;stroke-dasharray:none;stroke-opacity:1"
     d="m 213.08266,46.541202 v 0 c 6.628,0 12,5.3728 12,12 v 5.999999 c 0,6.627067 -5.372,12 -12,12 h -21 v 0 c -6.62666,0 -12,-5.372933 -12,-12 v -5.999999 c 0,-6.6272 5.37334,-12 12,-12 z"
     inkscape:connector-curvature="0" /><path
     id="path146"
     style="fill:none;stroke:#ffffff;stroke-width:0.75;stroke-linecap:butt;stroke-linejoin:miter;stroke-miterlimit:1;stroke-dasharray:none;stroke-opacity:1"
     d="m 225.08266,61.541202 h 9"
     inkscape:connector-curvature="0" /><path
     id="path148"
     style="fill:#ffffff;fill-opacity:1;fill-rule:nonzero;stroke:#ffffff;stroke-width:0.13333333;stroke-opacity:1"
     d="m 240.08266,61.541202 -6,2.25 v -4.5"
     inkscape:connector-curvature="0" /><path
     id="path150"
     style="fill:#ffffff;fill-opacity:1;fill-rule:nonzero;stroke:#ffffff;stroke-width:0.13333333;stroke-opacity:1"
     d="m 240.08266,61.541202 -6,2.25 v -4.5"
     inkscape:connector-curvature="0" /><path
     id="path152"
     style="fill:none;stroke:#ffffff;stroke-width:0.75;stroke-linecap:butt;stroke-linejoin:miter;stroke-miterlimit:1;stroke-dasharray:none;stroke-opacity:1"
     d="m 288.08266,46.541202 v 0 c 6.628,0 12,5.3728 12,12 v 5.999999 c 0,6.627067 -5.372,12 -12,12 h -36 v 0 c -6.62667,0 -12,-5.372933 -12,-12 v -5.999999 c 0,-6.6272 5.37333,-12 12,-12 z"
     inkscape:connector-curvature="0" /><path
     id="path162"
     style="fill:none;stroke:#ffffff;stroke-width:0.75;stroke-linecap:butt;stroke-linejoin:miter;stroke-miterlimit:1;stroke-dasharray:none;stroke-opacity:1"
     d="m 300.08266,61.541202 h 9"
     inkscape:connector-curvature="0" /><path
     id="path164"
     style="fill:#ffffff;fill-opacity:1;fill-rule:nonzero;stroke:#ffffff;stroke-width:0.13333333;stroke-opacity:1"
     d="m 315.08266,61.541202 -6,2.25 v -4.5"
     inkscape:connector-curvature="0" /><path
     id="path166"
     style="fill:#ffffff;fill-opacity:1;fill-rule:nonzero;stroke:#ffffff;stroke-width:0.13333333;stroke-opacity:1"
     d="m 315.08266,61.541202 -6,2.25 v -4.5"
     inkscape:connector-curvature="0" /><g
     inkscape:groupmode="layer"
     id="layer1"
     inkscape:label="text"
     style="display:inline"><g
       transform="matrix(1.3333333,0,0,-1.3333333,0,124)"
       id="g14"
       style="fill:#ffffff;fill-opacity:1"><text
   id="text20"
   style="font-variant:normal;font-weight:normal;font-size:7.875px;font-family:Helvetica;-inkscape-font-specification:Helvetica;writing-mode:lr-tb;fill:#ffffff;fill-opacity:1;fill-rule:nonzero;stroke:none"
   transform="matrix(1,0,0,-1,141,49.6566)"><tspan
     id="tspan16"
     y="0"
     x="0 1.74825 6.12675 10.06425 11.8125 15.75 20.1285"
     style="fill:#ffffff;fill-opacity:1">lexical</tspan><tspan
     id="tspan18"
     y="9.5625"
     x="-2.4093699 -0.22012 2.4022551 6.780755 11.159255 15.096755 17.286005 21.664505"
     style="fill:#ffffff;fill-opacity:1">transfer</tspan></text>

</g><g
       transform="matrix(1.3333333,0,0,-1.3333333,0,124)"
       id="g24"
       style="fill:#ffffff;fill-opacity:1"><text
   id="text30"
   style="font-variant:normal;font-weight:normal;font-size:7.875px;font-family:Helvetica;-inkscape-font-specification:Helvetica;writing-mode:lr-tb;fill:#ffffff;fill-opacity:1;fill-rule:nonzero;stroke:none"
   transform="matrix(1,0,0,-1,35.6223,49.6566)"><tspan
     id="tspan26"
     y="0"
     x="0 6.559875 10.938375 13.56075 17.939251 22.317751"
     style="fill:#ffffff;fill-opacity:1">morph.</tspan><tspan
     id="tspan28"
     y="9.5625"
     x="-2.6257801 1.75272 6.1312199 10.50972 12.25797 16.195471 20.132971 24.511471"
     style="fill:#ffffff;fill-opacity:1">analyser</tspan></text>

</g><g
       transform="matrix(1.3333333,0,0,-1.3333333,0,124)"
       id="g34"
       style="fill:#ffffff;fill-opacity:1"><text
   id="text40"
   style="font-variant:normal;font-weight:normal;font-size:7.875px;font-family:Helvetica;-inkscape-font-specification:Helvetica;writing-mode:lr-tb;fill:#ffffff;fill-opacity:1;fill-rule:nonzero;stroke:none"
   transform="matrix(1,0,0,-1,89.0598,49.6566)"><tspan
     id="tspan36"
     y="0"
     x="0 6.559875 10.938375 13.56075 17.939251 22.317751"
     style="fill:#ffffff;fill-opacity:1">morph.</tspan><tspan
     id="tspan38"
     y="9.5625"
     x="-4.5945301 -0.21603 1.53222 5.4697199 9.8482199 16.408094 20.786594 22.534845 26.913345"
     style="fill:#ffffff;fill-opacity:1">disambig.</tspan></text>

</g><g
       transform="matrix(1.3333333,0,0,-1.3333333,0,124)"
       id="g44"
       style="fill:#ffffff;fill-opacity:1"><text
   id="text50"
   style="font-variant:normal;font-weight:normal;font-size:7.875px;font-family:Helvetica;-inkscape-font-specification:Helvetica;writing-mode:lr-tb;fill:#ffffff;fill-opacity:1;fill-rule:nonzero;stroke:none"
   transform="matrix(1,0,0,-1,316.872,49.6566)"><tspan
     id="tspan46"
     y="0"
     x="0 6.559875 10.938375 13.56075 17.939251 22.317751"
     style="fill:#ffffff;fill-opacity:1">morph.</tspan><tspan
     id="tspan48"
     y="9.5625"
     x="-4.5984402 -0.21994001 4.1585598 8.5370598 12.91556 15.537935 19.916435 22.105684 26.484184"
     style="fill:#ffffff;fill-opacity:1">generator</tspan></text>

</g><g
       transform="matrix(1.3333333,0,0,-1.3333333,0,124)"
       id="g54"
       style="fill:#ffffff;fill-opacity:1"><text
   id="text68"
   style="font-variant:normal;font-weight:normal;font-size:7.875px;font-family:Helvetica;-inkscape-font-specification:Helvetica;writing-mode:lr-tb;fill:#ffffff;fill-opacity:1;fill-rule:nonzero;stroke:none"
   transform="matrix(1,0,0,-1,373.81,49.6566)"><tspan
     id="tspan56"
     y="0"
     x="0 4.3785 8.757 12.6945 14.88375"
     style="fill:#ffffff;fill-opacity:1">post-</tspan><tspan
     id="tspan58"
     y="9.5625"
     x="-8.0988302 -3.72033 0.65816998 5.0366702 9.4151697 12.037545 16.416044 18.605295 22.983795"
     style="fill:#ffffff;fill-opacity:1">generator</tspan><tspan
     id="tspan60"
     y="-30.9375"
     x="-370.12582 -364.8732"
     style="fill:#ffffff;fill-opacity:1">SL</tspan><tspan
     id="tspan62"
     y="-21.375"
     x="-371.65707 -369.46783 -365.08932 -361.15182"
     style="fill:#ffffff;fill-opacity:1">text</tspan><tspan
     id="tspan64"
     y="36.5625"
     x="43.531921 48.343544"
     style="fill:#ffffff;fill-opacity:1">TL</tspan><tspan
     id="tspan66"
     y="46.125"
     x="41.779968 43.969219 48.347721 52.285221"
     style="fill:#ffffff;fill-opacity:1">text</tspan></text>

</g><text
       id="text88"
       style="font-variant:normal;font-weight:normal;font-size:7.875px;font-family:Helvetica;-inkscape-font-specification:Helvetica;writing-mode:lr-tb;fill:#ffffff;fill-opacity:1;fill-rule:nonzero;stroke:none;"
       transform="matrix(1.3333333,0,0,1.3333333,36.992132,20.291203)"><tspan
         id="tspan86"
         y="0"
         x="0 4.3785 8.757 10.94625 15.32475 17.947124 24.507 28.8855 31.074751 33.264 37.642502"
         style="fill:#ffffff;fill-opacity:1;">deformatter</tspan></text>
<g
       transform="matrix(1.3333333,0,0,-1.3333333,0,124)"
       id="g92"
       style="fill:#ffffff;fill-opacity:1"><text
   id="text96"
   style="font-variant:normal;font-weight:normal;font-size:7.875px;font-family:Helvetica;-inkscape-font-specification:Helvetica;writing-mode:lr-tb;fill:#ffffff;fill-opacity:1;fill-rule:nonzero;stroke:none"
   transform="matrix(1,0,0,-1,363.309,10.2816)"><tspan
     id="tspan94"
     y="0"
     x="0 2.622375 7.000875 9.1901255 13.568625 16.191 22.750875 27.129375 29.318624 31.507875 35.886375"
     style="fill:#ffffff;fill-opacity:1">reformatter</tspan></text>

</g><g
       transform="matrix(1.3333333,0,0,-1.3333333,0,124)"
       id="g106"
       style="fill:#ffffff;fill-opacity:1"><text
   id="text112"
   style="font-variant:normal;font-weight:normal;font-size:7.875px;font-family:Helvetica;-inkscape-font-specification:Helvetica;writing-mode:lr-tb;fill:#ffffff;fill-opacity:1;fill-rule:nonzero;stroke:none"
   transform="matrix(1,0,0,-1,248.248,49.6566)"><tspan
     id="tspan108"
     y="0"
     x="0 3.9375 6.12675 8.7491245 13.127625 17.065125 19.254375 23.632875 26.255251 30.633751"
     style="fill:#ffffff;fill-opacity:1">structural</tspan><tspan
     id="tspan110"
     y="9.5625"
     x="2.8425801 5.0318298 7.6542048 12.032705 16.411205 20.348705 22.537954 26.916454"
     style="fill:#ffffff;fill-opacity:1">transfer</tspan></text>

</g><g
       transform="matrix(1.3333333,0,0,-1.3333333,0,124)"
       id="g154"
       style="fill:#ffffff;fill-opacity:1"><text
   id="text160"
   style="font-variant:normal;font-weight:normal;font-size:7.875px;font-family:Helvetica;-inkscape-font-specification:Helvetica;writing-mode:lr-tb;fill:#ffffff;fill-opacity:1;fill-rule:nonzero;stroke:none"
   transform="matrix(1,0,0,-1,191.625,49.6566)"><tspan
     id="tspan156"
     y="0"
     x="0 1.74825 6.12675 10.06425 11.8125 15.75 20.1285"
     style="fill:#ffffff;fill-opacity:1">lexical</tspan><tspan
     id="tspan158"
     y="9.5625"
     x="-4.5984402 -0.66093999 3.7175601 5.4658098 9.8443098 13.78181 15.97106 17.719311 22.097811"
     style="fill:#ffffff;fill-opacity:1">selection</tspan></text>

</g></g><g
     inkscape:groupmode="layer"
     id="layer2"
     inkscape:label="lines" /></svg>